# xmcd CD database file generated by OrangeCD 5.2
#
# Track frame offsets:
#	150
#	20745
#	42639
#	57817
#	83573
#	110947
#	130323
#	155019
#	173542
#	196730
#
# Disc length: 2933 seconds
#
# Revision: 0
# Processed by: cddbd v1.5.1PL0 Copyright (c) Steve Scherf et al.
# Submitted via: OrangeCD 5.2
#
DISCID=840b730a
DTITLE=Garth Brooks - The Wal-Mart Concert
DYEAR=1998
DGENRE=Country
TTITLE0=Rodeo
TTITLE1=Two Pina Coladas
TTITLE2=Two of a Kind, Workin' on a Full House
TTITLE3=The Thunder Rolls
TTITLE4=We Shall Be Free
TTITLE5=To Make You Feel My Love
TTITLE6=The River
TTITLE7=Papa Loved Mama
TTITLE8=Standing Outside the Fire
TTITLE9=In Anothers Eyes
EXTD=
EXTT0=
EXTT1=
EXTT2=
EXTT3=
EXTT4=
EXTT5=
EXTT6=
EXTT7=
EXTT8=
EXTT9=
PLAYORDER=
